<svg xmlns="http://www.w3.org/2000/svg" viewBox="0 0 920 680" role="img" aria-labelledby="title desc">
  <title id="title">Campus tecnológico amazônico</title>
  <desc id="desc">Ilustração abstrata com escola técnica, laboratório maker, circuitos e formas inspiradas em rios amazônicos.</desc>
  <defs>
    <linearGradient id="sky" x1="80" x2="850" y1="40" y2="620" gradientUnits="userSpaceOnUse">
      <stop stop-color="#0b1f49" />
      <stop offset="0.52" stop-color="#0a3465" />
      <stop offset="1" stop-color="#052b36" />
    </linearGradient>
    <linearGradient id="glow" x1="110" x2="780" y1="120" y2="560" gradientUnits="userSpaceOnUse">
      <stop stop-color="#16f4a4" />
      <stop offset="0.5" stop-color="#2cb8ff" />
      <stop offset="1" stop-color="#8f6cff" />
    </linearGradient>
    <filter id="blur">
      <feGaussianBlur stdDeviation="20" />
    </filter>
  </defs>
  <rect width="920" height="680" rx="44" fill="url(#sky)" />
  <path d="M-40 518c160-92 292-62 424-20 152 48 302 56 584-92v274H-40Z" fill="#0b564b" opacity=".52" />
  <path d="M-20 562c218-112 364 12 558-38 124-32 202-110 402-92" fill="none" stroke="#16f4a4" stroke-width="8" opacity=".34" />
  <path d="M64 180h180M244 180v88h112M356 268v70h118M474 338h178M652 338v-76h114" fill="none" stroke="#2cb8ff" stroke-width="5" opacity=".44" />
  <path d="M164 428V272l296-138 298 138v156" fill="none" stroke="url(#glow)" stroke-linecap="round" stroke-linejoin="round" stroke-width="20" />
  <path d="M214 428V300h492v128" fill="#f6fbff" opacity=".94" />
  <path d="M266 344h86v84h-86Zm118 0h86v84h-86Zm118 0h86v84h-86Zm118 0h42v84h-42Z" fill="#0c2b57" opacity=".88" />
  <path d="M240 468h444" stroke="#16f4a4" stroke-linecap="round" stroke-width="18" />
  <path d="M502 176h100l-50 44Z" fill="#16f4a4" opacity=".95" />
  <circle cx="112" cy="180" r="14" fill="#16f4a4" />
  <circle cx="356" cy="268" r="14" fill="#2cb8ff" />
  <circle cx="474" cy="338" r="14" fill="#16f4a4" />
  <circle cx="766" cy="262" r="14" fill="#8f6cff" />
  <g filter="url(#blur)" opacity=".72">
    <circle cx="680" cy="142" r="58" fill="#16f4a4" />
    <circle cx="260" cy="190" r="50" fill="#2cb8ff" />
  </g>
  <g fill="#fff" opacity=".28">
    <circle cx="120" cy="92" r="3" />
    <circle cx="180" cy="130" r="4" />
    <circle cx="760" cy="110" r="4" />
    <circle cx="830" cy="210" r="3" />
    <circle cx="706" cy="532" r="4" />
    <circle cx="88" cy="460" r="3" />
  </g>
</svg>
